<svg width="320" height="133" viewBox="0 0 320 133" fill="none" xmlns="http://www.w3.org/2000/svg">
<path d="M121.032 94.33C116.239 94.33 112.124 93.4828 108.687 91.7885C105.25 90.0941 102.442 87.8915 100.264 85.1805C98.1339 82.4696 96.5606 79.5166 95.544 76.3215C94.5273 73.1264 94.019 70.0524 94.019 67.0994V65.5019C94.019 62.21 94.5273 58.9665 95.544 55.7715C96.609 52.5764 98.2307 49.6718 100.409 47.0577C102.588 44.4435 105.347 42.3619 108.687 40.8128C112.076 39.2153 116.07 38.4165 120.669 38.4165C125.461 38.4165 129.625 39.2879 133.158 41.0306C136.741 42.725 139.597 45.1455 141.727 48.2921C143.857 51.3904 145.14 55.0211 145.576 59.1844H135.192C134.804 56.7639 133.933 54.7307 132.578 53.0847C131.271 51.3904 129.6 50.1317 127.567 49.3087C125.534 48.4374 123.234 48.0017 120.669 48.0017C118.055 48.0017 115.731 48.4616 113.698 49.3814C111.664 50.2527 109.97 51.5114 108.615 53.1573C107.259 54.8033 106.218 56.7397 105.492 58.9665C104.814 61.1934 104.476 63.6623 104.476 66.3733C104.476 68.9874 104.814 71.4079 105.492 73.6348C106.218 75.8616 107.283 77.8222 108.687 79.5166C110.091 81.1625 111.81 82.4454 113.843 83.3652C115.925 84.2849 118.321 84.7448 121.032 84.7448C125.001 84.7448 128.342 83.7766 131.053 81.8402C133.812 79.8554 135.482 77.0961 136.063 73.5621H146.447C145.963 77.3381 144.68 80.7994 142.598 83.9461C140.517 87.0927 137.661 89.61 134.03 91.498C130.399 93.386 126.066 94.33 121.032 94.33Z" fill="black"/>
<path d="M150.719 92.9503V38.4165H160.812V60.2188C161.821 57.7344 163.249 55.8163 165.097 54.4644C167.13 53.0121 169.696 52.286 172.794 52.286H173.229C177.732 52.286 181.144 53.8351 183.468 56.9333C185.792 60.0316 186.954 64.5337 186.954 70.4397V92.9503H176.86V69.4957C176.86 66.9784 176.134 64.9936 174.682 63.5413C173.278 62.089 171.414 61.3628 169.09 61.3628C166.621 61.3628 164.612 62.1858 163.063 63.8317C161.563 65.4293 160.812 67.5351 160.812 70.1492V92.9503H150.719Z" fill="black"/>
<path fill-rule="evenodd" clip-rule="evenodd" d="M218.065 85.3569V92.9503H226.052V68.4791C226.052 64.7999 225.35 61.8227 223.946 59.5475C222.591 57.2722 220.558 55.602 217.847 54.537C215.184 53.472 211.82 52.9395 207.753 52.9395C206.446 52.9395 205.042 52.9637 203.542 53.0121C202.089 53.0121 200.661 53.0605 199.257 53.1573C197.853 53.2542 196.595 53.351 195.481 53.4478V62.0164C196.837 61.9195 198.362 61.8469 200.056 61.7985C201.799 61.7017 203.517 61.6291 205.212 61.5807C206.906 61.5323 208.358 61.5081 209.569 61.5081C211.892 61.5081 213.611 62.0648 214.724 63.1782C215.838 64.2916 216.394 65.986 216.394 68.2612V68.6243H208.334C204.849 68.6243 201.799 69.0842 199.185 70.004C196.619 70.9238 194.61 72.3035 193.158 74.1431C191.754 75.9826 191.052 78.3547 191.052 81.2593C191.052 83.9219 191.633 86.1971 192.795 88.0851C194.005 89.9731 195.675 91.4254 197.805 92.442C199.984 93.4586 202.501 93.9669 205.357 93.9669C208.116 93.9669 210.44 93.4828 212.328 92.5146C214.264 91.498 215.765 90.0457 216.83 88.1577C217.329 87.3116 217.741 86.378 218.065 85.3569ZM216.394 78.3547V74.6514H208.189C205.865 74.6514 204.074 75.2323 202.815 76.3941C201.605 77.5075 201 78.9598 201 80.751C201 82.5422 201.605 83.9945 202.815 85.1079C204.074 86.2213 205.865 86.7781 208.189 86.7781C209.593 86.7781 210.876 86.536 212.038 86.0519C213.248 85.5194 214.24 84.648 215.015 83.4378C215.838 82.1791 216.298 80.4848 216.394 78.3547Z" fill="black"/>
<path d="M235.121 92.9503V52.9395H245.215V92.9503H235.121Z" fill="black"/>
<path d="M253.216 52.9395V92.9503H263.31V69.7862C263.31 67.2204 264.06 65.1872 265.561 63.6865C267.11 62.1374 269.119 61.3628 271.588 61.3628C274.009 61.3628 275.897 62.1132 277.252 63.6139C278.656 65.1146 279.358 67.0752 279.358 69.4957V92.9503H289.451V70.3671C289.451 64.3642 288.241 59.8621 285.821 56.8607C283.4 53.8109 279.842 52.286 275.146 52.286H274.711C271.564 52.286 268.926 52.9637 266.795 54.3192C264.714 55.6747 263.141 57.7079 262.076 60.4188C261.729 61.2863 261.438 62.2257 261.204 63.237V52.9395H253.216Z" fill="black"/>
<path d="M30.6064 76.2525C30.6064 79.7956 33.4793 82.6692 37.0231 82.6692C40.5669 82.6692 43.4398 79.7956 43.4398 76.2525C43.4398 73.6547 39.6731 71.2108 39.6731 66.6275C39.6731 62.5025 43.4398 59.6003 43.4398 57.0025C43.4398 53.4594 40.5669 50.5858 37.0231 50.5858C33.4793 50.5858 30.6064 53.4594 30.6064 57.0025C30.6064 59.6003 34.3732 62.5025 34.3731 66.6275C34.3731 70.7525 30.6064 73.6547 30.6064 76.2525Z" fill="black"/>
<path d="M61.7723 36.8332C61.7723 33.29 64.6451 30.4165 68.1889 30.4165C71.7327 30.4165 74.6056 33.29 74.6056 36.8332C74.6056 37.9489 73.9107 39.0363 73.1179 40.277C72.0648 41.925 70.8389 43.8434 70.8389 46.4582C70.8389 48.758 72.0098 50.6778 73.0459 52.3766C73.8682 53.7247 74.6056 54.9337 74.6056 56.0832C74.6056 56.2372 74.6002 56.3901 74.5895 56.5414C74.6002 56.6928 74.6056 56.8456 74.6056 56.9997C74.6056 58.1154 73.9107 59.2028 73.1179 60.4435C72.0648 62.0914 70.8389 64.0099 70.8389 66.6247C70.8389 68.9245 72.0098 70.8443 73.0459 72.5431C73.8682 73.8912 74.6056 75.1003 74.6056 76.2497C74.6056 76.4038 74.6002 76.5566 74.5895 76.708C74.6002 76.8594 74.6056 77.0122 74.6056 77.1663C74.6056 78.3158 73.8682 79.5248 73.0459 80.8729C72.0098 82.5717 70.8389 84.4915 70.8389 86.7913C70.8389 89.4061 72.0648 91.3246 73.1179 92.9725C73.9107 94.2132 74.6056 95.3006 74.6056 96.4163C74.6056 99.9595 71.7327 102.833 68.1889 102.833C64.6451 102.833 61.7723 99.9595 61.7723 96.4163C61.7723 95.2669 62.5097 94.0579 63.3319 92.7098C64.3681 91.011 65.539 89.0912 65.539 86.7913C65.539 84.4915 64.3681 82.5717 63.3319 80.8729C62.5097 79.5248 61.7723 78.3158 61.7723 77.1663C61.7723 77.0123 61.7777 76.8594 61.7884 76.7081C61.7777 76.5566 61.7723 76.4038 61.7723 76.2497C61.7723 75.1003 62.5097 73.8912 63.3319 72.5431C64.3681 70.8443 65.539 68.9245 65.539 66.6247C65.539 64.3248 64.3681 62.4051 63.3319 60.7062C62.5097 59.3581 61.7723 58.1491 61.7723 56.9997C61.7723 56.8456 61.7777 56.6928 61.7884 56.5414C61.7777 56.3901 61.7723 56.2373 61.7723 56.0832C61.7723 54.9337 62.5097 53.7247 63.3319 52.3766C64.3681 50.6778 65.539 48.758 65.539 46.4582C65.539 44.1583 64.3681 42.2386 63.3319 40.5397C62.5097 39.1916 61.7723 37.9826 61.7723 36.8332Z" fill="black"/>
<path d="M52.6054 92.7512C49.0616 92.7512 46.1888 89.8777 46.1888 86.3345C46.1888 85.1851 46.9262 83.9761 47.7484 82.6279C48.7846 80.9291 49.9555 79.0094 49.9555 76.7095C49.9555 74.4097 48.7846 72.4899 47.7484 70.7911C46.9262 69.443 46.1888 68.2339 46.1888 67.0845C46.1888 66.9304 46.1942 66.7776 46.2049 66.6262C46.1942 66.4748 46.1888 66.322 46.1888 66.1679C46.1888 65.0184 46.9262 63.8094 47.7484 62.4613C48.7846 60.7625 49.9555 58.8427 49.9555 56.5429C49.9555 54.243 48.7846 52.3232 47.7484 50.6244C46.9262 49.2763 46.1888 48.0673 46.1888 46.9179C46.1888 43.3747 49.0616 40.5012 52.6054 40.5012C56.1492 40.5012 59.0221 43.3747 59.0221 46.9179C59.0221 48.0336 58.3273 49.121 57.5344 50.3617C56.4813 52.0096 55.2554 53.9281 55.2554 56.5429C55.2554 58.8427 56.4263 60.7625 57.4624 62.4613C58.2847 63.8094 59.0221 65.0184 59.0221 66.1679C59.0221 66.3219 59.0167 66.4748 59.006 66.6261C59.0167 66.7775 59.0221 66.9304 59.0221 67.0845C59.0221 68.2339 58.2847 69.443 57.4624 70.7911C56.4263 72.4899 55.2554 74.4097 55.2554 76.7095C55.2554 79.3243 56.4813 81.2427 57.5344 82.8907C58.3273 84.1314 59.0221 85.2188 59.0221 86.3345C59.0221 89.8777 56.1492 92.7512 52.6054 92.7512Z" fill="black"/>
</svg>
