<svg width="444" height="195" viewBox="0 0 444 195" fill="none" xmlns="http://www.w3.org/2000/svg">
<path opacity="0.8" d="M100.513 87.6035H125.293L100.513 50.1316H75.7334L100.513 87.6035Z" fill="black"/>
<path opacity="0.9" d="M75.1352 87.6035H50.3554L75.1352 50.1316H99.915L75.1352 87.6035Z" fill="black"/>
<path opacity="0.6" d="M100.517 125.076L100.517 87.6042L125.296 87.6042L125.296 125.076L100.517 125.076Z" fill="black"/>
<path d="M50.3516 125.076L50.3516 87.6042L75.1314 87.6042L75.1314 125.076L50.3516 125.076Z" fill="black"/>
<path d="M188.65 74.1318V125.124H178.422V103.427H156.579V125.124H146.352V74.1318H156.579V95.0984H178.422V74.1318H188.65Z" fill="black"/>
<path d="M213.766 125.781C209.87 125.781 206.363 124.929 203.246 123.224C200.129 121.471 197.67 119.012 195.868 115.846C194.114 112.68 193.238 109.027 193.238 104.888C193.238 100.748 194.139 97.0953 195.941 93.9296C197.791 90.7639 200.3 88.3287 203.465 86.6241C206.631 84.8708 210.162 83.9942 214.058 83.9942C217.954 83.9942 221.485 84.8708 224.651 86.6241C227.817 88.3287 230.301 90.7639 232.103 93.9296C233.953 97.0953 234.879 100.748 234.879 104.888C234.879 109.027 233.929 112.68 232.03 115.846C230.179 119.012 227.646 121.471 224.432 123.224C221.266 124.929 217.711 125.781 213.766 125.781ZM213.766 116.869C215.617 116.869 217.346 116.43 218.953 115.554C220.609 114.628 221.924 113.265 222.898 111.463C223.872 109.661 224.359 107.469 224.359 104.888C224.359 101.04 223.336 98.0937 221.291 96.0482C219.294 93.9539 216.834 92.9068 213.912 92.9068C210.99 92.9068 208.53 93.9539 206.534 96.0482C204.585 98.0937 203.611 101.04 203.611 104.888C203.611 108.735 204.561 111.706 206.46 113.8C208.409 115.846 210.844 116.869 213.766 116.869Z" fill="black"/>
<path d="M289.72 84.0672C294.688 84.0672 298.682 85.6014 301.701 88.6697C304.769 91.6892 306.304 95.9264 306.304 101.381V125.124H296.076V102.769C296.076 99.6035 295.272 97.1927 293.665 95.5368C292.058 93.8322 289.866 92.9799 287.09 92.9799C284.314 92.9799 282.098 93.8322 280.442 95.5368C278.835 97.1927 278.032 99.6035 278.032 102.769V125.124H267.804V102.769C267.804 99.6035 267 97.1927 265.393 95.5368C263.786 93.8322 261.594 92.9799 258.818 92.9799C255.993 92.9799 253.753 93.8322 252.097 95.5368C250.49 97.1927 249.686 99.6035 249.686 102.769V125.124H239.459V84.6517H249.686V89.5463C251.001 87.8417 252.682 86.5024 254.727 85.5283C256.821 84.5543 259.11 84.0672 261.594 84.0672C264.76 84.0672 267.585 84.7491 270.069 86.1128C272.552 87.4277 274.476 89.3272 275.84 91.811C277.155 89.4733 279.054 87.5982 281.538 86.1858C284.071 84.7734 286.798 84.0672 289.72 84.0672Z" fill="black"/>
<path d="M350.71 104.011C350.71 105.472 350.612 106.787 350.418 107.956H320.831C321.074 110.878 322.097 113.167 323.899 114.823C325.701 116.479 327.917 117.307 330.547 117.307C334.346 117.307 337.049 115.675 338.656 112.412H349.687C348.518 116.309 346.278 119.523 342.966 122.056C339.654 124.539 335.588 125.781 330.766 125.781C326.87 125.781 323.363 124.929 320.246 123.224C317.178 121.471 314.767 119.012 313.014 115.846C311.309 112.68 310.457 109.027 310.457 104.888C310.457 100.699 311.309 97.0222 313.014 93.8565C314.718 90.6908 317.105 88.2557 320.173 86.5511C323.241 84.8465 326.772 83.9942 330.766 83.9942C334.613 83.9942 338.047 84.8221 341.067 86.478C344.135 88.1339 346.497 90.496 348.153 93.5643C349.858 96.5839 350.71 100.066 350.71 104.011ZM340.117 101.089C340.068 98.4589 339.118 96.3647 337.268 94.8062C335.417 93.199 333.152 92.3954 330.474 92.3954C327.941 92.3954 325.798 93.1747 324.045 94.7332C322.34 96.243 321.293 98.3615 320.904 101.089H340.117Z" fill="black"/>
<path d="M393.972 84.6517L368.914 144.264H358.029L366.795 124.101L350.577 84.6517H362.047L372.494 112.924L383.087 84.6517H393.972Z" fill="black"/>
</svg>
